<?xml version="1.0" encoding="UTF-8" standalone="no"?>
<!-- Created with Inkscape (http://www.inkscape.org/) -->

<svg
   xmlns:dc="http://purl.org/dc/elements/1.1/"
   xmlns:cc="http://creativecommons.org/ns#"
   xmlns:rdf="http://www.w3.org/1999/02/22-rdf-syntax-ns#"
   xmlns:svg="http://www.w3.org/2000/svg"
   xmlns="http://www.w3.org/2000/svg"
   xmlns:xlink="http://www.w3.org/1999/xlink"
   xmlns:sodipodi="http://sodipodi.sourceforge.net/DTD/sodipodi-0.dtd"
   xmlns:inkscape="http://www.inkscape.org/namespaces/inkscape"
   width="1052.3622"
   height="744.09448"
   id="svg2"
   version="1.1"
   inkscape:version="0.48.5 r10040"
   sodipodi:docname="logo.svg"
   inkscape:export-filename="/home/carlo/prova/logo_adlibitum/logo.png"
   inkscape:export-xdpi="90"
   inkscape:export-ydpi="90">
  <defs
     id="defs4" />
  <sodipodi:namedview
     id="base"
     pagecolor="#ffffff"
     bordercolor="#666666"
     borderopacity="1.0"
     inkscape:pageopacity="0.0"
     inkscape:pageshadow="2"
     inkscape:zoom="0.67598942"
     inkscape:cx="381.94807"
     inkscape:cy="372.04724"
     inkscape:document-units="px"
     inkscape:current-layer="layer3"
     showgrid="false"
     inkscape:window-width="1366"
     inkscape:window-height="702"
     inkscape:window-x="0"
     inkscape:window-y="27"
     inkscape:window-maximized="1"
     showguides="true"
     inkscape:guide-bbox="true" />
  <metadata
     id="metadata7">
    <rdf:RDF>
      <cc:Work
         rdf:about="">
        <dc:format>image/svg+xml</dc:format>
        <dc:type
           rdf:resource="http://purl.org/dc/dcmitype/StillImage" />
        <dc:title></dc:title>
      </cc:Work>
    </rdf:RDF>
  </metadata>
  <g
     inkscape:groupmode="layer"
     id="layer4"
     inkscape:label="Cerchio verde"
     sodipodi:insensitive="true"
     style="display:none">
    <path
       sodipodi:type="arc"
       style="fill:#324f32;fill-opacity:1;stroke:none"
       id="path2999"
       sodipodi:cx="424.56287"
       sodipodi:cy="400.89386"
       sodipodi:rx="258.87979"
       sodipodi:ry="258.87979"
       d="m 683.44266,400.89386 a 258.87979,258.87979 0 1 1 -517.75959,0 258.87979,258.87979 0 1 1 517.75959,0 z"
       transform="matrix(1.2360949,0,0,1.2360949,1.3810977,-123.49561)" />
  </g>
  <g
     inkscape:groupmode="layer"
     id="layer6"
     inkscape:label="Cerchio bianco"
     sodipodi:insensitive="true"
     style="display:inline">
    <path
       sodipodi:type="arc"
       style="fill:#ffffff;fill-opacity:1;stroke:none"
       id="path3770"
       sodipodi:cx="664.95123"
       sodipodi:cy="453.40945"
       sodipodi:rx="295.12296"
       sodipodi:ry="275.89191"
       d="m 960.07419,453.40945 a 295.12296,275.89191 0 1 1 -590.24591,0 295.12296,275.89191 0 1 1 590.24591,0 z"
       transform="matrix(1.0504096,0,0,1.1236285,-172.29007,-137.41654)" />
  </g>
  <g
     inkscape:groupmode="layer"
     id="layer3"
     inkscape:label="Pentagramma"
     style="display:inline"
     sodipodi:insensitive="true">
    <g
       id="g3120"
       inkscape:export-filename="/home/carlo/prova/logo_adlibitum/favicon.png"
       inkscape:export-xdpi="10.248509"
       inkscape:export-ydpi="10.248509">
      <path
         id="line4016"
         d="m 352.125,489.59375 c 1.08315,1.60072 2.21801,3.18117 3.34375,4.75 l 341.4375,0 c 1.12564,-1.56869 2.22944,-3.14943 3.3125,-4.75 l -348.09375,0 z"
         style="font-size:medium;font-style:normal;font-variant:normal;font-weight:normal;font-stretch:normal;text-indent:0;text-align:start;text-decoration:none;line-height:normal;letter-spacing:normal;word-spacing:normal;text-transform:none;direction:ltr;block-progression:tb;writing-mode:lr-tb;text-anchor:start;baseline-shift:baseline;color:#000000;fill:#1c0b00;fill-opacity:1;stroke:none;stroke-width:4.77268076;marker:none;visibility:visible;display:inline;overflow:visible;enable-background:accumulate;font-family:Sans;-inkscape-font-specification:Sans"
         inkscape:connector-curvature="0" />
      <path
         id="line4018"
         d="m 325.15625,432.9375 c 0.48396,1.59993 0.97914,3.1977 1.5,4.78125 l 399.0625,0 c 0.52086,-1.58355 1.01604,-3.18132 1.5,-4.78125 l -402.0625,0 z"
         style="font-size:medium;font-style:normal;font-variant:normal;font-weight:normal;font-stretch:normal;text-indent:0;text-align:start;text-decoration:none;line-height:normal;letter-spacing:normal;word-spacing:normal;text-transform:none;direction:ltr;block-progression:tb;writing-mode:lr-tb;text-anchor:start;baseline-shift:baseline;color:#000000;fill:#1c0b00;fill-opacity:1;stroke:none;stroke-width:4.77268076;marker:none;visibility:visible;display:inline;overflow:visible;enable-background:accumulate;font-family:Sans;-inkscape-font-specification:Sans"
         inkscape:connector-curvature="0" />
      <path
         id="line4020"
         d="m 316.25,376.3125 c 0.0319,1.60218 0.0886,3.18807 0.15625,4.78125 l 419.5625,0 c 0.0676,-1.59318 0.12434,-3.17907 0.15625,-4.78125 l -419.875,0 z"
         style="font-size:medium;font-style:normal;font-variant:normal;font-weight:normal;font-stretch:normal;text-indent:0;text-align:start;text-decoration:none;line-height:normal;letter-spacing:normal;word-spacing:normal;text-transform:none;direction:ltr;block-progression:tb;writing-mode:lr-tb;text-anchor:start;baseline-shift:baseline;color:#000000;fill:#1c0b00;fill-opacity:1;stroke:none;stroke-width:4.77268076;marker:none;visibility:visible;display:inline;overflow:visible;enable-background:accumulate;font-family:Sans;-inkscape-font-specification:Sans"
         inkscape:connector-curvature="0" />
      <path
         id="line4022"
         d="m 322.75,319.6875 c -0.40677,1.58505 -0.78578,3.18197 -1.15625,4.78125 l 409.1875,0 c -0.3705,-1.59943 -0.78069,-3.19606 -1.1875,-4.78125 l -406.84375,0 z"
         style="font-size:medium;font-style:normal;font-variant:normal;font-weight:normal;font-stretch:normal;text-indent:0;text-align:start;text-decoration:none;line-height:normal;letter-spacing:normal;word-spacing:normal;text-transform:none;direction:ltr;block-progression:tb;writing-mode:lr-tb;text-anchor:start;baseline-shift:baseline;color:#000000;fill:#1c0b00;fill-opacity:1;stroke:none;stroke-width:4.77268076;marker:none;visibility:visible;display:inline;overflow:visible;enable-background:accumulate;font-family:Sans;-inkscape-font-specification:Sans"
         inkscape:connector-curvature="0" />
      <path
         id="line4024"
         d="m 346.65625,263.0625 c -0.95286,1.56629 -1.89983,3.15715 -2.8125,4.75 l 364.6875,0 c -0.91267,-1.59285 -1.85964,-3.18371 -2.8125,-4.75 l -359.0625,0 z"
         style="font-size:medium;font-style:normal;font-variant:normal;font-weight:normal;font-stretch:normal;text-indent:0;text-align:start;text-decoration:none;line-height:normal;letter-spacing:normal;word-spacing:normal;text-transform:none;direction:ltr;block-progression:tb;writing-mode:lr-tb;text-anchor:start;baseline-shift:baseline;color:#000000;fill:#1c0b00;fill-opacity:1;stroke:none;stroke-width:4.77268076;marker:none;visibility:visible;display:inline;overflow:visible;enable-background:accumulate;font-family:Sans;-inkscape-font-specification:Sans"
         inkscape:connector-curvature="0" />
    </g>
  </g>
  <g
     inkscape:groupmode="layer"
     id="layer5"
     inkscape:label="Chiave"
     style="display:inline"
     sodipodi:insensitive="true">
    <path
       id="path4028"
       d="m 538.02856,375.9964 c 0.90266,0 2.03099,-0.22567 2.93365,-0.22567 34.97822,0 57.77048,28.88524 57.77048,58.89881 0,17.15061 -7.44698,34.75255 -24.14626,47.38984 -4.96465,3.83632 -10.6063,6.31865 -16.47361,8.12397 0.677,7.89831 1.12833,15.79662 1.12833,23.69492 0,4.28766 -0.22567,8.80098 -0.45133,13.08863 -1.57966,27.07991 -20.30993,51.45183 -46.93851,51.45183 -24.37192,0 -44.00485,-19.8586 -44.00485,-44.45619 0,-13.08862 11.96029,-23.24359 25.27458,-23.24359 12.18596,0 21.43826,10.6063 21.43826,23.24359 0,11.73463 -9.70363,21.43826 -21.43826,21.43826 -2.48233,0 -4.73898,-0.45133 -6.99564,-1.35399 5.86731,8.80097 15.34528,14.66828 26.40291,14.66828 21.66393,0 35.42955,-20.76126 36.78354,-43.10219 0.22567,-4.06198 0.45134,-8.34964 0.45134,-12.41162 0,-6.99565 -0.22567,-13.76562 -0.90267,-20.76127 -6.54431,1.12833 -13.08862,1.80533 -20.08427,1.80533 -42.42519,0 -75.14675,-38.81454 -75.14675,-84.39905 0,-39.94287 29.56224,-69.05378 55.96515,-99.51868 -4.28765,-13.99128 -8.34964,-28.20824 -10.15496,-42.87652 -1.354,-11.73463 -1.57967,-23.46926 -1.57967,-35.20389 0,-25.95158 12.41163,-50.54916 33.62423,-65.89444 0.67699,-0.45134 1.57966,-0.677 2.25666,-0.677 0.90266,0 1.57966,0 2.25665,0.677 16.02228,18.95593 30.01357,55.28815 30.01357,80.78839 0,32.27023 -19.40727,57.54482 -40.61986,82.1424 4.73898,15.34528 8.80097,31.1419 12.63729,46.71285 z m 19.1816,104.93465 c 15.34528,-5.41598 25.50025,-21.43826 25.50025,-37.00921 0,-20.30993 -14.89395,-40.3942 -39.0402,-42.87653 5.41598,26.17725 10.38062,52.12883 13.53995,79.88574 z m -87.33271,-52.12883 c 0,30.4649 29.1109,55.73948 59.5758,55.73948 6.31865,0 12.41163,-0.45133 18.50461,-1.35399 -3.15932,-28.65957 -8.34964,-55.28815 -14.21695,-82.1424 -17.82761,1.80533 -27.98258,13.76563 -27.98258,26.85425 0,9.9293 5.64165,20.5356 18.27894,27.75691 1.12833,1.12833 1.57966,2.25666 1.57966,3.38499 0,2.48232 -2.25666,4.96465 -4.96465,4.96465 -0.677,0 -1.35399,-0.22567 -2.03099,-0.45134 -18.05328,-9.70363 -26.40291,-25.95158 -26.40291,-41.74819 0,-19.8586 13.08862,-39.26587 36.10654,-44.45619 -3.15932,-13.08862 -6.54431,-26.40291 -10.38063,-39.49153 -24.14625,27.30557 -48.06684,54.83682 -48.06684,90.94336 z m 75.37242,-229.50224 c -22.34093,10.83196 -36.55788,33.62422 -36.55788,58.44747 0,16.69928 4.06198,30.01357 8.12397,43.77919 18.05327,-21.88959 32.94723,-44.68185 32.94723,-73.11576 0,-12.41162 -0.90267,-17.8276 -4.51332,-29.1109 z"
       inkscape:connector-curvature="0"
       style="fill:#1c0b00;fill-opacity:1"
       inkscape:export-filename="/home/carlo/prova/logo_adlibitum/favicon.png"
       inkscape:export-xdpi="10.248509"
       inkscape:export-ydpi="10.248509" />
  </g>
  <g
     inkscape:label="Scritta Ad libitum"
     id="g3801"
     inkscape:groupmode="layer"
     sodipodi:insensitive="true"
     style="display:inline">
    <path
       transform="matrix(0.86858971,0,0,0.88089275,80.315184,16.948078)"
       d="m 778.11871,403.11282 a 264.79706,261.09875 0 1 1 -529.59411,0 264.79706,261.09875 0 1 1 529.59411,0 z"
       sodipodi:ry="261.09875"
       sodipodi:rx="264.79706"
       sodipodi:cy="403.11282"
       sodipodi:cx="513.32166"
       id="path3803"
       style="fill:none;stroke:none"
       sodipodi:type="arc" />
    <text
       sodipodi:linespacing="125%"
       id="text3805"
       style="font-size:100px;font-style:normal;font-variant:normal;font-weight:bold;font-stretch:normal;line-height:125%;letter-spacing:-8px;word-spacing:10px;fill:#324f32;fill-opacity:1;stroke:none;font-family:Linux Biolinum O;-inkscape-font-specification:Linux Biolinum O Bold"
       xml:space="preserve"><textPath
         xlink:href="#path3803"
         id="textPath3846"><tspan
   dx="825.97809 0 0 0 0 0 0 0 -4.4379392 -4.4379392"
   style="letter-spacing:-8px;word-spacing:10px;fill:#324f32;fill-opacity:1"
   id="tspan3809">AD LIBITUM</tspan></textPath></text>
  </g>
  <g
     inkscape:label="Scritta associazione"
     id="g3026"
     inkscape:groupmode="layer"
     style="display:inline"
     sodipodi:insensitive="true">
    <path
       transform="matrix(-0.96677811,0,0,0.98047193,1022.4492,-23.193567)"
       d="m 778.11871,403.11282 a 264.79706,261.09875 0 1 1 -529.59411,0 264.79706,261.09875 0 1 1 529.59411,0 z"
       sodipodi:ry="261.09875"
       sodipodi:rx="264.79706"
       sodipodi:cy="403.11282"
       sodipodi:cx="513.32166"
       id="path3028"
       style="fill:none;stroke:none"
       sodipodi:type="arc" />
    <text
       sodipodi:linespacing="125%"
       id="text3030"
       style="font-size:40px;font-style:normal;font-variant:normal;font-weight:bold;font-stretch:normal;line-height:125%;letter-spacing:0px;word-spacing:12px;fill:#324f32;fill-opacity:1;stroke:none;font-family:Linux Biolinum O;-inkscape-font-specification:Linux Biolinum O Bold"
       xml:space="preserve"><textPath
         xlink:href="#path3028"
         id="textPath3037"><tspan
   style="font-size:40px;word-spacing:12px"
   dx="-11.834504"
   id="tspan3034">ASSOCIAZIONE MUSICALE E CULTURALE</tspan></textPath></text>
  </g>
  <g
     inkscape:groupmode="layer"
     id="layer10"
     inkscape:label="Guida"
     style="display:none"
     sodipodi:insensitive="true">
    <path
       style="fill:none;stroke:#000000;stroke-width:1px;stroke-linecap:butt;stroke-linejoin:miter;stroke-opacity:1"
       d="m 60.197444,356.87979 931.967296,0"
       id="path3799"
       inkscape:connector-curvature="0" />
    <path
       sodipodi:type="arc"
       style="fill:none;stroke:#000000;stroke-width:1.29656386;stroke-miterlimit:4;stroke-opacity:1;stroke-dasharray:none"
       id="path3860"
       sodipodi:cx="420.86456"
       sodipodi:cy="442.31461"
       sodipodi:rx="296.60226"
       sodipodi:ry="298.82126"
       d="m 717.46683,442.31461 a 296.60226,298.82126 0 1 1 -593.20453,0 296.60226,298.82126 0 1 1 593.20453,0 z"
       transform="matrix(0.77376432,0,0,0.76801848,200.53111,32.34145)" />
  </g>
</svg>
